<?xml version="1.0" encoding="iso-8859-1"?>
<!-- Generator: Adobe Illustrator 19.0.0, SVG Export Plug-In . SVG Version: 6.00 Build 0)  -->
<svg version="1.1" id="Layer_1" xmlns="http://www.w3.org/2000/svg" xmlns:xlink="http://www.w3.org/1999/xlink" x="0px" y="0px"
	 viewBox="0 0 512 512" style="enable-background:new 0 0 512 512;" xml:space="preserve">
<path style="fill:#302F33;" d="M202.764,441.082c-6.353,0-12.429-3.64-15.234-9.801c-3.829-8.408-0.116-18.327,8.292-22.157
	l214.525-97.69c8.405-3.827,18.327-0.116,22.157,8.292c3.83,8.408,0.116,18.327-8.292,22.157l-214.525,97.69
	C207.44,440.597,205.084,441.082,202.764,441.082z"/>
<path style="fill:#414045;" d="M417.27,441.082c-2.32,0-4.674-0.485-6.923-1.509l-214.525-97.69
	c-8.408-3.83-12.119-13.75-8.292-22.157c3.83-8.409,13.749-12.12,22.157-8.292l214.525,97.69c8.408,3.83,12.12,13.75,8.292,22.157
	C429.699,437.442,423.624,441.082,417.27,441.082z"/>
<path style="fill:#F53000;" d="M178.975,98.432c-4.678,0-9.079,2.217-11.865,5.976c-2.786,3.758-3.629,8.617-2.266,13.093
	l47.474,155.985c1.894,6.221,7.625,10.461,14.128,10.461c40.979,0,182.082,0,223.312,0c6.495,0,12.237-4.247,14.128-10.46
	l47.474-155.985c1.363-4.476,0.522-9.332-2.264-13.092c-2.786-3.759-7.189-5.976-11.867-5.976
	C434.472,98.432,241.773,98.432,178.975,98.432z"/>
<path style="fill:#57565C;" d="M451.747,343.388H180.609c-7.363,0-13.86-4.813-16.004-11.858L83.384,64.657H16.728
	C7.49,64.657,0,57.167,0,47.929S7.49,31.2,16.728,31.2h79.05c7.363,0,13.86,4.813,16.004,11.858l81.222,266.874h258.743
	c9.238,0,16.728,7.49,16.728,16.728C468.476,335.9,460.986,343.388,451.747,343.388z"/>
<g>
	<path style="fill:#2D2E30;" d="M179.478,393.948c-23.946,0-43.425,19.481-43.425,43.425c0,23.946,19.481,43.427,43.425,43.427
		s43.425-19.481,43.425-43.427C222.904,413.428,203.423,393.948,179.478,393.948z M179.478,447.343c-5.498,0-9.969-4.472-9.969-9.97
		c0-5.497,4.472-9.969,9.969-9.969c5.497,0,9.969,4.472,9.969,9.969C189.447,442.871,184.975,447.343,179.478,447.343z"/>
	<path style="fill:#2D2E30;" d="M441.349,393.948c-23.946,0-43.425,19.481-43.425,43.425c0,23.946,19.481,43.427,43.425,43.427
		s43.425-19.481,43.425-43.427C484.774,413.428,465.295,393.948,441.349,393.948z M441.349,447.343c-5.498,0-9.969-4.472-9.969-9.97
		c0-5.497,4.472-9.969,9.969-9.969s9.969,4.472,9.969,9.969C451.318,442.871,446.847,447.343,441.349,447.343z"/>
</g>
<g>
	<path style="fill:#1D1D1F;" d="M179.478,393.948v33.456c5.498,0,9.969,4.472,9.969,9.969c0,5.498-4.472,9.97-9.969,9.97V480.8
		c23.946,0,43.425-19.481,43.425-43.427C222.904,413.428,203.423,393.948,179.478,393.948z"/>
	<path style="fill:#1D1D1F;" d="M441.349,393.948v33.456c5.498,0,9.969,4.472,9.969,9.969c0,5.498-4.472,9.97-9.969,9.97V480.8
		c23.946,0,43.425-19.481,43.425-43.427C484.774,413.428,465.295,393.948,441.349,393.948z"/>
</g>
<g>
	<path style="fill:#BF2717;" d="M509.097,104.41c-2.786-3.759-7.189-5.976-11.867-5.976c-31.381,0-95.253,0-159.127,0v185.514
		c45.521,0,91.055,0,111.655,0c6.495,0,12.237-4.247,14.128-10.46l47.474-155.985C512.723,113.025,511.883,108.168,509.097,104.41z"
		/>
	<path style="fill:#BF2717;" d="M206.465,254.256l5.853,19.231c1.894,6.221,7.625,10.461,14.128,10.461
		c34.816,0,141.898,0,198.605,0v-29.69H206.465V254.256z"/>
</g>
<g>
</g>
<g>
</g>
<g>
</g>
<g>
</g>
<g>
</g>
<g>
</g>
<g>
</g>
<g>
</g>
<g>
</g>
<g>
</g>
<g>
</g>
<g>
</g>
<g>
</g>
<g>
</g>
<g>
</g>
</svg>
